<?xml version="1.0" encoding="utf-8"?>
<svg width="1025" height="1192" viewBox="0 0 1025 1192" fill="none" version="1.1" id="svg8" xmlns="http://www.w3.org/2000/svg">
  <rect width="1070.997" height="1192" rx="5.229" id="rect2" x="-18.583" style="stroke-width: 1.02269; fill: rgb(12, 2, 11);"/>
  <rect y="756.211" width="1070.997" height="333.386" id="rect4" x="1421.189" style="stroke-width: 0.966855; fill: rgb(26, 22, 36);"/>
  <path fill-rule="evenodd" clip-rule="evenodd" d="M -18.583 880.773 L 41.179 913.488 C 100.049 946.203 191.158 1002.636 309.79 1002.636 C 428.423 1002.636 522.875 991.199 641.508 965.026 C 760.141 938.855 814.473 924.945 868.329 922.49 L 1051.786 920.03 L 1051.786 1194.842 L 992.023 1194.842 C 933.153 1194.842 813.629 1194.842 694.996 1194.842 C 576.363 1194.842 456.839 1194.842 338.207 1194.842 C 219.575 1194.842 100.049 1194.842 41.179 1194.842 L -18.583 1194.842 L -18.583 880.773 Z" id="path6" style="stroke-width: 1.00614; fill: rgb(26, 22, 36);"/>
  <path fill-rule="evenodd" clip-rule="evenodd" d="M 1054.254 151.834 L 994.381 135.605 C 935.401 119.376 815.655 86.916 696.837 86.969 C 578.019 87.022 473.41 181.563 354.605 194.62 C 235.8 207.677 101.015 139.249 42.049 136.023 L -17.81 132.798 L -17.954 -3.748 L 41.901 -3.773 C 100.864 -3.799 220.575 -3.852 339.394 -3.905 C 458.212 -3.956 577.923 -4.009 696.741 -4.063 C 815.559 -4.114 935.271 -4.167 994.233 -4.192 L 1054.089 -4.22 L 1054.254 151.834 Z" id="path6-9" style="stroke-width: 0.540498; fill: rgb(26, 22, 36);"/>
</svg>